<?xml version="1.0" standalone="no"?>
<!DOCTYPE svg PUBLIC "-//W3C//DTD SVG 20010904//EN"
 "http://www.w3.org/TR/2001/REC-SVG-20010904/DTD/svg10.dtd">
<svg version="1.0" xmlns="http://www.w3.org/2000/svg"
 width="657.000000pt" height="657.000000pt" viewBox="0 0 657.000000 657.000000"
 preserveAspectRatio="xMidYMid meet">
<metadata>
Created by potrace 1.14, written by Peter Selinger 2001-2017
</metadata>
<g transform="translate(0.000000,657.000000) scale(0.100000,-0.100000)"
fill="#000000" stroke="none">
<path d="M3187 6564 c-1 -1 -58 -4 -127 -8 -69 -3 -138 -9 -154 -11 -15 -3
-47 -8 -70 -10 -123 -11 -331 -57 -541 -119 -180 -54 -526 -205 -665 -291
-170 -106 -220 -139 -321 -216 -118 -88 -138 -104 -238 -194 -125 -113 -274
-274 -403 -436 -123 -153 -306 -463 -406 -689 -67 -152 -178 -498 -197 -615
-3 -16 -8 -41 -10 -55 -3 -14 -7 -36 -10 -50 -3 -14 -7 -36 -9 -50 -3 -14 -8
-49 -11 -79 -4 -30 -9 -63 -12 -75 -4 -12 -7 -165 -9 -341 -2 -354 6 -456 57
-715 14 -70 15 -72 21 -90 5 -15 35 -127 43 -164 2 -10 21 -66 41 -125 126
-366 301 -687 538 -985 153 -193 345 -386 526 -527 30 -24 57 -46 60 -49 3 -4
48 -36 100 -72 494 -342 1030 -534 1630 -584 110 -10 390 -9 505 0 148 12 159
14 328 41 320 54 699 188 1003 356 106 59 349 215 376 242 7 7 20 18 29 23 18
10 89 67 124 99 11 11 37 33 56 48 97 81 287 280 389 407 76 94 190 256 190
268 0 6 4 12 9 14 15 5 129 205 196 343 65 135 119 266 160 388 47 144 104
368 120 477 2 19 7 46 10 59 2 14 7 45 10 70 3 25 7 62 9 81 18 142 23 417 12
585 -5 75 -30 273 -40 322 -2 11 -8 43 -12 70 -5 26 -9 50 -9 53 -3 9 -16 63
-40 160 -114 455 -376 953 -694 1315 -75 86 -310 314 -381 370 -41 33 -81 66
-88 73 -20 18 -197 142 -272 189 -274 172 -634 326 -920 393 -52 12 -106 26
-120 31 -14 4 -45 11 -70 14 -25 3 -54 8 -65 10 -59 12 -77 15 -160 24 -139
16 -477 34 -488 25z"/>
</g>
</svg>
